<svg width="74" height="74" viewBox="0 0 74 74" fill="none" xmlns="http://www.w3.org/2000/svg">
<circle cx="37" cy="37" r="37" fill="#303E49"/>
<path d="M37 41.5C39.4853 41.5 41.5 39.4853 41.5 37C41.5 34.5147 39.4853 32.5 37 32.5C34.5147 32.5 32.5 34.5147 32.5 37C32.5 39.4853 34.5147 41.5 37 41.5Z" stroke="white" stroke-width="2.25" stroke-miterlimit="10" stroke-linecap="round" stroke-linejoin="round"/>
<path d="M22 38.32V35.68C22 34.12 23.275 32.83 24.85 32.83C27.565 32.83 28.675 30.91 27.31 28.555C26.53 27.205 26.995 25.45 28.36 24.67L30.955 23.185C32.14 22.48 33.67 22.9 34.375 24.085L34.54 24.37C35.89 26.725 38.11 26.725 39.475 24.37L39.64 24.085C40.345 22.9 41.875 22.48 43.06 23.185L45.655 24.67C47.02 25.45 47.485 27.205 46.705 28.555C45.34 30.91 46.45 32.83 49.165 32.83C50.725 32.83 52.015 34.105 52.015 35.68V38.32C52.015 39.88 50.74 41.17 49.165 41.17C46.45 41.17 45.34 43.09 46.705 45.445C47.485 46.81 47.02 48.55 45.655 49.33L43.06 50.815C41.875 51.52 40.345 51.1 39.64 49.915L39.475 49.63C38.125 47.275 35.905 47.275 34.54 49.63L34.375 49.915C33.67 51.1 32.14 51.52 30.955 50.815L28.36 49.33C26.995 48.55 26.53 46.795 27.31 45.445C28.675 43.09 27.565 41.17 24.85 41.17C23.275 41.17 22 39.88 22 38.32Z" stroke="white" stroke-width="2.25" stroke-miterlimit="10" stroke-linecap="round" stroke-linejoin="round"/>
</svg>
