<svg width="1024" height="1024" viewBox="0 0 1024 1024" fill="none" xmlns="http://www.w3.org/2000/svg">
<path d="M388 146C255.329 124.696 90.9717 154.889 150.5 331.5C193.774 459.887 54.5698 476.22 64.8209 557.513C64.8209 675.247 107.525 754.297 199.77 754.297C324.85 749.625 548.474 743.085 715.652 754.297C882.83 765.51 949.678 718.604 962.205 693.749C993.522 673.566 961.127 514.829 976.5 331.5C994.633 115.268 767.191 206.891 388 146Z" fill="#F4F9FB"/>
<path d="M554.345 691.975L554.96 703.446L565.816 704.061L564.997 690.951L554.345 691.975Z" fill="#FFB27D"/>
<path d="M508.869 704.47L511.122 690.541L523.413 692.385L517.882 707.133L508.869 704.47Z" fill="#FFB27D"/>
<path d="M503.956 713.074C503.792 704.225 506.892 701.466 508.462 701.193C511.412 707.584 518.568 704.812 521.777 702.627C523.553 704.812 528.906 709.755 536.116 712.05C544.719 716.147 542.876 719.834 536.116 720.858C525.956 721.677 516.725 716.693 513.379 714.098L512.969 715.942C511.74 715.737 508.217 714.877 503.956 713.074Z" fill="#2555A5"/>
<path d="M504.162 712.869V709.796L513.38 713.278L512.765 716.146L504.162 712.869Z" fill="#133A7A"/>
<path d="M551.477 708.978C549.51 705.045 551.75 701.194 553.115 699.76C558.36 702.546 562.811 700.716 564.996 699.35C565.61 699.35 568.314 700.088 568.478 700.58C572.165 703.857 577.286 705.496 580.154 705.905C583.022 706.315 583.022 705.701 586.914 708.159C593.469 713.485 578.515 714.714 578.311 714.714C578.106 714.714 567.249 715.328 565.406 713.485C563.931 712.01 561.24 711.641 560.08 711.641V713.689L551.477 712.665V708.978Z" fill="#2555A5"/>
<path d="M551.511 712.61L551.512 709.706L560.08 711.436L560.08 713.689L551.511 712.61Z" fill="#133A7A"/>
<path d="M444.55 506.799C450.45 506.471 457.66 508.711 460.528 509.872L465.649 503.726C463.6 502.839 459.258 500.531 458.275 498.4C457.046 495.737 456.636 492.87 449.876 490.002C443.116 487.134 445.574 489.797 449.671 492.87C452.949 495.328 450.013 495.055 448.033 494.713L439.839 491.436C432.669 488.568 431.645 489.592 438.2 493.279C442.559 495.731 438.815 495.328 434.923 493.894C428.532 491.764 430.621 494.235 432.465 495.738L436.561 497.991C436.63 498.059 436.234 498.073 434.103 497.581C426.729 496.762 430.348 499.015 433.079 500.244C435.127 500.722 438.814 501.76 437.176 502.088C429.802 500.777 431.372 502.634 433.079 503.726C435.605 504.546 441.437 506.307 444.55 506.799Z" fill="#FFB27D"/>
<path d="M532.632 471.156C528.535 460.832 548.132 465.762 558.442 469.517C558.988 469.858 559.753 471.402 558.442 474.843C553.321 483.651 539.801 481.193 532.632 471.156Z" fill="white"/>
<path d="M548.813 477.097L550.861 474.434L554.344 476.482L553.115 478.735L560.899 508.232L548.813 510.281L550.861 478.735L548.813 477.097Z" fill="#545272"/>
<path d="M535.09 469.314L536.729 454.36L554.755 461.53C554.755 464.124 554.877 470.051 555.369 473.001C549.961 479.392 539.596 473.205 535.09 469.314Z" fill="#FFB27D"/>
<path d="M562.538 449.649C563.357 437.194 561.786 431.486 560.899 430.189C543.692 417.489 528.124 441.25 534.679 453.746C541.234 466.241 551.886 466.651 554.958 465.831C558.031 465.012 561.513 465.217 562.538 449.649Z" fill="#FFB27D"/>
<path d="M532.017 432.646C528.979 445.303 533.86 453.54 536.319 455.998L537.548 451.901C537.275 452.311 536.278 451.819 534.475 446.575C533.451 439.201 538.367 443.298 539.596 444.937C540.825 443.503 542.464 434.899 542.464 433.261C549.347 434.408 558.441 432.783 562.128 431.827C561.719 429.164 559.465 427.115 557.212 424.657C555.369 422.404 535.704 417.283 532.017 432.646Z" fill="#545272"/>
<path d="M627.269 499.22C625.958 501.514 621.67 505.775 619.689 507.618L622.557 513.354L635.257 513.969C638.262 512.944 645.09 510.404 648.367 508.438C651.645 506.471 649.323 506.663 647.753 507.004L644.885 507.618C645.295 507.004 646.892 505.324 650.006 503.522C653.12 501.719 650.211 501.678 648.367 501.883L644.27 503.522C645.431 502.497 647.998 500.203 648.982 499.22C650.825 495.123 645.499 499.22 644.885 499.834C644.393 500.326 642.222 501.405 641.198 501.883C641.266 501.541 642.222 499.916 645.499 496.147C648.982 490.821 643.451 494.713 639.764 498.196C637.142 501.145 633.072 501.2 631.365 500.859C631.502 500.517 632.144 499.343 633.619 497.376C637.306 488.978 628.907 496.352 627.269 499.22Z" fill="#FFB27D"/>
<path d="M517.884 626.836V570.504L570.938 558.419L572.986 568.866V631.957C571.757 651.143 569.299 690.787 569.299 695.867C566.186 698.489 556.258 696.96 551.683 695.867C551.273 677.158 550.454 638.88 550.454 635.439C548.324 633.8 546.698 621.919 546.152 616.184L539.802 643.223C535.705 659.815 527.061 694.515 525.258 700.578C519.195 700.906 511.261 696.755 508.052 694.638C508.735 685.898 510.838 665.755 513.787 655.104C516.737 644.452 517.748 631.82 517.884 626.836Z" fill="#1D468A"/>
<path d="M550.452 595.289C549.633 596.928 547.107 609.355 545.946 615.364C546.833 618.983 548.977 625.688 550.452 623.557C552.296 620.894 551.477 593.241 550.452 595.289Z" fill="#173870"/>
<path d="M553.32 569.89C551.845 573.986 551.067 576.649 550.042 576.445L551.886 586.891C553.456 581.634 555.942 570.873 553.32 569.89Z" fill="#173870"/>
<path d="M459.915 497.99C456.965 500.612 453.906 507.003 452.746 509.871C458.618 513.763 472.82 522.817 482.652 527.897C492.485 532.977 503 524.005 507.029 518.884L515.427 507.412V578.492C515.086 578.288 514.731 578.083 516.042 578.902C530.79 586.071 550.045 579.517 555.166 569.07C566.637 581.032 573.602 575.829 575.65 571.733L570.529 513.353C572.031 515.538 577.535 521.506 587.531 527.897C597.527 533.468 608.63 528.853 612.931 525.848C617.028 523.185 625.836 517.45 628.294 515.811C628.131 512.697 624.539 506.866 622.764 504.34L598.388 510.075C595.11 506.593 586.958 497.211 580.566 487.543C574.995 477.383 566.774 472.658 563.36 471.565L551.889 505.364C545.743 492.937 531.896 468.493 525.669 470.131C517.885 472.18 513.993 474.433 508.667 479.144C504.407 482.914 493.509 500.243 488.593 508.437C480.604 505.501 463.684 499.301 459.915 497.99Z" fill="#F99744"/>
<path d="M557.621 480.578C558.768 473.04 555.914 469.517 554.344 468.697C554.48 468.629 554.835 468.37 555.163 467.878C557.621 468.206 562.332 471.155 564.381 472.589L560.284 483.856C560.489 484.47 561.308 485.822 562.947 486.314C560.98 493.688 555.982 503.862 553.729 508.027C554.548 502.018 556.474 488.116 557.621 480.578Z" fill="#CD7123"/>
<path d="M526.077 469.926C526.569 468.615 531.608 466.512 534.066 465.625C533.042 469.517 538.777 483.856 543.284 489.796C548.528 496.515 552.024 505.432 553.116 509.051L535.705 489.796L538.777 487.338C534.817 482.353 526.733 471.893 526.077 469.926Z" fill="#CD7123"/>
<path d="M521.98 498.605C521.652 499.752 517.473 504.819 515.425 507.209V510.486C517.883 507.96 522.635 502.047 521.98 498.605Z" fill="#C67633"/>
<path d="M569.094 485.29L570.528 512.739L574.624 517.655C574.761 517.791 574.952 517.491 574.624 515.197C574.788 506.839 571.006 491.776 569.094 485.29Z" fill="#C67633"/>
<path d="M537.549 444.732C536.593 444.39 534.968 444.404 536.115 447.19C537.262 449.976 537.686 450.399 537.754 450.263" stroke="#545272"/>
<path d="M536.523 457.432C540.484 461.051 549.674 467.797 554.754 465.83C551.272 470.132 536.523 466.445 536.523 457.432Z" fill="#EC9F6A"/>
<path d="M903.076 723.512L893.089 669.686L896.138 667.794L907.071 723.512H903.076Z" fill="url(#paint0_linear_244_4529)"/>
<path d="M869.118 724.457L877.528 679.778L873.639 681.25L864.913 724.457H869.118Z" fill="url(#paint1_linear_244_4529)"/>
<path d="M838.107 723.512L830.748 686.087H827.173L834.322 723.512H838.107Z" fill="url(#paint2_linear_244_4529)"/>
<path d="M784.822 709.418L794.389 662.005H797.858L788.291 709.418H784.822Z" fill="url(#paint3_linear_244_4529)"/>
<path d="M909.711 620.576C903.09 576.51 885.966 563.54 876.138 562.798C832.53 554.632 816.92 594.594 812.708 601.646C808.496 608.699 808.62 626.886 793.258 653.733C777.896 680.581 787.752 656.959 789.486 674.82C912.183 722.128 914.693 653.733 909.711 620.576Z" fill="url(#paint4_linear_244_4529)"/>
<path d="M890.829 611.639C888.054 573.877 870.68 563.175 862.34 562.544C825.335 555.606 812.089 589.562 808.514 595.554C804.94 601.547 805.045 617 792.009 639.813C778.974 662.626 784.65 676.502 792.85 678.605C889.568 700.261 892.9 639.813 890.829 611.639Z" fill="url(#paint5_linear_244_4529)"/>
<path d="M827.034 664.7C827.739 664.753 891.916 650.263 856.322 650.891C827.847 651.394 824.932 660.307 827.034 664.7Z" fill="#D0A85B"/>
<path d="M120.183 709.454L130.412 654.326L127.289 652.388L116.091 709.454H120.183Z" fill="url(#paint6_linear_244_4529)"/>
<path d="M154.963 710.422L146.349 664.661L150.333 666.169L159.27 710.422H154.963Z" fill="url(#paint7_linear_244_4529)"/>
<path d="M186.723 709.453L194.261 671.122H197.921L190.6 709.453H186.723Z" fill="url(#paint8_linear_244_4529)"/>
<path d="M241.298 695.019L231.5 646.459H227.947L237.745 695.019H241.298Z" fill="url(#paint9_linear_244_4529)"/>
<path d="M113.39 604.026C120.171 558.894 137.709 545.61 147.776 544.85C192.439 536.487 208.427 577.416 212.741 584.639C217.055 591.862 216.928 610.489 232.662 637.986C248.396 665.484 238.301 641.29 236.525 659.584C110.858 708.037 108.287 637.986 113.39 604.026Z" fill="url(#paint10_linear_244_4529)"/>
<path d="M132.73 594.873C135.573 556.198 153.367 545.237 161.909 544.591C199.81 537.484 213.376 572.262 217.037 578.4C220.698 584.537 220.591 600.365 233.942 623.73C247.293 647.094 241.479 661.307 233.08 663.461C134.022 685.641 130.609 623.73 132.73 594.873Z" fill="url(#paint11_linear_244_4529)"/>
<path d="M198.07 649.218C197.347 649.273 131.617 634.432 168.073 635.076C197.237 635.591 200.223 644.719 198.07 649.218Z" fill="#D0A85B"/>
<path d="M784.003 742.174C762.677 751.102 768.178 733.756 780.636 730.389L771.208 655.641L794.777 665.758L789.839 732.441C789.54 733.131 788.672 739.415 784.003 742.174Z" fill="#FFB27D"/>
<path d="M758.464 740.937C752.996 745.605 756.945 746.622 759.603 746.547L790.585 745.874L791.41 736.673C792.094 735.402 789.726 730.388 779.423 736.673C776.595 738.398 772.892 737.796 771.905 733.756C769.703 734.205 763.931 736.27 758.464 740.937Z" fill="#50246B"/>
<path d="M736.935 717.081L761.781 655.647C762.01 655.416 776.579 661.659 784.003 665.354C771.222 684.829 745.063 724.563 742.675 727.704C739.69 731.629 741.756 734.4 741.297 736.479C740.379 736.479 738.313 737.172 726.373 740.404C714.434 743.637 722.011 735.786 727.521 732.553C731.93 729.967 735.634 721.161 736.935 717.081Z" fill="#FFB27D"/>
<path d="M711.325 740.937C705.858 745.605 709.806 746.622 712.464 746.548L743.447 745.874V735.327C744.13 734.056 742.854 732.545 732.284 736.674C721.714 740.803 722.868 736.449 724.766 733.757C722.564 734.205 716.793 736.27 711.325 740.937Z" fill="#50246B"/>
<path d="M760.604 651.239C758.573 655.317 760.681 657.109 761.99 657.495L796.39 677.19C799.083 670.007 789.694 649.385 824.556 654.714C866.483 656.753 872.655 627.45 870.5 612.543C859.726 612.62 837.67 613.192 835.638 614.86C833.099 616.945 801.238 627.372 786.693 628.994C772.148 630.616 763.144 646.141 760.604 651.239Z" fill="url(#paint12_linear_244_4529)"/>
<path d="M829.794 617.807C831.838 617.444 831.11 612.371 830.491 609.879L870.667 606.482C870.822 607.388 871.038 610.106 870.667 613.73C865.558 617.58 836.296 618.26 829.794 617.807Z" fill="#8B49B3"/>
<path d="M831.143 611.869C821.106 580.697 823.399 563.736 825.799 559.152C825.799 536.306 847.495 519.654 858.414 517.591L870.872 608.431C863.98 609.271 846.384 611.135 831.143 611.869Z" fill="url(#paint13_linear_244_4529)"/>
<path d="M797.827 572.811L773.902 558.874L780.803 547.222L792.306 554.304L810.939 552.705L797.827 572.811Z" fill="url(#paint14_linear_244_4529)"/>
<path d="M746.593 534.445C748.064 537.37 755.938 541.758 759.692 543.586C762.817 545.78 771.871 554.556 776.008 558.669L781.983 549.985C780.374 548.919 775.824 546.146 770.492 543.586C763.598 541.529 762.449 538.33 759.002 532.845C755.555 527.36 757.623 532.617 757.164 533.988C756.796 535.085 754.866 533.683 753.946 532.845C752.338 531.093 748.615 527.954 746.593 529.417C744.065 531.245 744.754 530.788 746.593 534.445Z" fill="#FFB27D"/>
<path d="M780.862 547.222C775.117 551.935 773.83 557.042 773.905 559.006L777.72 561.363L784.676 550.05C784.302 549.736 783.016 548.73 780.862 547.222Z" fill="#4586F2"/>
<path d="M732.924 571.231C729.084 573.918 731.324 574.59 732.924 574.59C734.753 574.142 738.639 573.202 739.553 573.022C740.696 572.799 743.896 575.71 745.725 576.605C747.188 577.322 752.735 576.307 755.325 575.71L776.812 576.605L777.269 567.424L756.925 570.335C755.478 570.932 751.759 571.679 748.468 569.887C743.896 565.857 737.724 567.872 732.924 571.231Z" fill="#FFB27D"/>
<path d="M829.613 530.987C828.468 526.68 825.317 520.651 823.885 518.176L830.227 511.306L843.116 524.117L831.045 538.228C831.045 537.609 830.759 535.295 829.613 530.987Z" fill="#FFB27D"/>
<path d="M837.65 527.16C834.957 526.192 831.066 530.148 829.794 532.407C829.869 532.73 831.186 536.31 831.365 537.084C833.161 536.448 838.885 531.397 841.915 529.097C841.616 528.855 840.344 528.129 837.65 527.16Z" fill="white"/>
<path d="M843.262 539.165C839.349 528.208 823.16 538.708 815.41 546.013C809.272 550.882 796.811 560.85 796.075 561.763C795.338 562.677 793.159 563.97 792.162 564.502L779.962 566.329V578.198H804.131L833.825 560.622C843.032 554.915 842.342 550.578 843.262 539.165Z" fill="url(#paint15_linear_244_4529)"/>
<path d="M774.615 566.764L773.902 577.513L781.983 578.199V566.078L774.615 566.764Z" fill="#4586F2"/>
<path d="M827.732 526.69C829.527 527.048 831.837 522.293 832.51 520.28L825.809 522.844C826.033 523.441 827.013 525.258 827.732 526.69Z" fill="#E4A579"/>
<path d="M836.716 518.222C818.158 530.981 814.428 518.299 814.883 510.363C814.201 504.046 813.564 490.347 816.475 486.094C820.114 480.778 859.914 502.274 836.716 518.222Z" fill="#FFB27D"/>
<path d="M835.367 521.744C834.626 516.547 836.293 507.206 837.22 503.184C841.776 501.947 852.045 499.612 856.678 500.168C861.311 500.725 865.712 511.691 867.334 517.104C868.106 523.445 869.465 537.288 868.723 541.927C866.87 548.655 868.955 549.583 870.577 554.455C872.198 559.327 872.893 565.359 863.396 567.215C855.798 568.7 854.053 561.956 854.13 558.399V542.623C854.13 536.128 850.655 531.952 844.632 530.328C838.61 528.704 836.293 528.24 835.367 521.744Z" fill="#0F2B53"/>
<path d="M819.707 489.623C815.467 488.345 814.253 496.395 814.176 500.58C812.563 498.754 811.411 491.906 811.641 489.623C811.872 487.341 815.098 482.09 818.324 481.633C820.721 482.912 824.546 481.557 826.159 480.72C829.309 479.579 837.036 477.981 842.751 480.72C849.895 484.144 854.504 492.591 854.043 495.558C853.582 498.526 855.426 498.069 857.269 501.037C858.422 504.233 851.969 508.114 844.825 508.799C837.682 509.483 827.081 501.037 825.698 496.015C824.316 490.993 823.394 489.623 819.707 489.623Z" fill="#163561"/>
<path d="M240.748 459.153C238.92 456.803 238.898 451.428 239.116 449.034C239.66 447.729 239.703 443.094 235.525 434.999C230.302 424.88 200.926 462.744 201.905 467.966C202.688 472.144 200.273 479.064 198.967 482.002L217.572 490.162C218.443 485.266 221.555 476.126 227.038 478.738C232.522 481.349 235.416 477.65 236.178 475.473C236.613 473.297 238.006 468.292 240.095 465.681C244.338 464.049 243.033 462.091 240.748 459.153Z" fill="#F7B39D"/>
<path d="M242.38 438.916C247.603 446.228 241.945 450.014 238.463 450.993C238.355 447.62 237.68 440.483 235.852 438.916C229.977 439.569 228.345 442.507 225.407 445.444C223.057 447.795 222.034 453.387 221.817 455.889C214.962 445.118 212.351 455.889 213.33 458.827C214.309 461.765 207.455 463.07 207.455 465.029C207.455 466.987 205.823 469.599 204.843 469.599C203.864 469.599 203.211 472.536 202.559 474.495C200.6 474.495 198.315 464.702 197.336 463.07C196.553 461.765 195.051 454.475 194.398 450.993C193.093 447.403 192.048 438.72 198.315 432.714C204.582 426.708 215.941 427.383 220.837 428.471C224.754 429.777 234.351 432.257 241.401 431.735C250.214 431.082 245.318 437.284 242.38 438.916Z" fill="#1C1717"/>
<path d="M213.657 469.599C214.44 471.949 222.47 476.236 226.387 478.086C222.731 477.302 220.076 481.458 219.206 483.634C217.465 481.241 213.918 475.083 213.657 469.599Z" fill="#EFA069"/>
<path d="M199.294 481.349L217.9 489.836C215.615 494.079 218.879 499.954 221.49 507.788C225.146 512.749 226.713 532.486 227.039 541.735C226.495 549.568 224.624 566.15 221.49 569.806C217.573 574.376 219.858 589.39 219.858 597.224C219.858 605.058 210.392 601.141 206.475 597.224C202.558 593.307 192.766 591.675 188.849 600.162C184.932 608.648 177.425 603.752 168.612 604.405C161.561 604.927 165.674 587.432 168.612 578.619C169.156 578.292 170.701 572.417 172.529 551.527C174.618 524.37 181.668 504.742 184.932 498.322C186.891 495.711 191.46 489.901 194.072 487.551C197.205 487.028 198.859 483.199 199.294 481.349Z" fill="#9566FA"/>
<path d="M213.029 561.25L220.863 571.695C221.951 573.871 225.824 577.832 232.613 576.265C239.925 576.265 250.457 575.395 254.809 574.959C259.923 574.524 270.934 573.915 274.067 574.959C277.984 576.265 289.082 576.918 292.346 577.244C295.61 577.571 306.055 572.348 298.221 573.327C297.073 573.327 296.003 573.459 295.164 573.614C301.057 572.15 308.407 569.91 299.527 570.39C296.655 571.173 295.066 571.151 294.631 571.042C301.703 568.649 312.453 564.58 298.874 567.452C295.284 567.452 312.257 562.556 296.589 564.514C284.055 566.081 284.186 562.338 285.818 560.271C288.211 560.053 292.607 559.031 291.04 556.68C289.082 553.743 290.387 558.313 284.512 557.007C279.812 555.962 273.197 560.271 270.477 562.556L234.898 560.271L227.717 550.479L213.029 561.25Z" fill="#F7B39D"/>
<path d="M185.912 537.165C176.446 482.98 213.983 486.245 224.102 532.268C224.865 535.402 231.601 546.413 234.874 551.527C230.413 555.008 219.271 563.538 210.393 569.805C203.342 562.494 191.135 544.998 185.912 537.165Z" fill="#8959EF"/>
<path d="M261.336 722.17L256.114 706.829L268.191 704.218L272.108 722.17H261.336Z" fill="#F7B39D"/>
<path d="M255.789 710.745L233.593 634.692H262.643L271.456 707.808L255.789 710.745Z" fill="#2D4364"/>
<path d="M258.241 729.831C256.029 722.01 258.138 718.836 259.469 718.227C263.581 723.214 269.289 719.081 271.629 716.391C273.716 717.917 279.624 721.057 286.563 721.411C295.16 723.04 294.384 726.745 288.62 729.233C279.788 732.334 270.426 730.063 266.849 728.54L266.916 730.273C265.776 730.378 262.446 730.436 258.241 729.831Z" fill="#142743"/>
<path d="M276.677 720.864L275.371 703.891H288.101L286.143 724.128L276.677 720.864Z" fill="#F7B39D"/>
<path d="M274.487 726.996C272.331 719.16 274.463 716.002 275.798 715.402C279.874 720.419 285.612 716.327 287.971 713.654C290.047 715.195 295.932 718.377 302.869 718.781C311.454 720.472 310.651 724.172 304.869 726.618C296.015 729.655 286.67 727.316 283.104 725.768L283.158 727.501C282.018 727.598 278.688 727.633 274.487 726.996Z" fill="#193052"/>
<path d="M221.516 599.766C195.925 591.671 180.931 587.145 165.373 589.321C155.255 639.048 185.61 643.831 202.91 643.178C220.209 642.526 227.651 643.178 240.448 643.178C252.85 643.178 252.524 640.354 263.622 649.38L273.741 706.828L289.408 707.807C291.693 688.005 294.78 649.297 296.085 640.68C297.717 629.908 296.412 614.567 281.723 613.588C269.972 612.805 229.459 601.616 221.516 599.766Z" fill="#3C5780"/>
<path d="M817.479 576.274H233.993C232.025 576.274 230.431 577.868 230.431 579.836C230.431 581.803 232.025 583.398 233.993 583.398H817.479C819.86 583.398 821.571 581.107 820.894 578.824C820.446 577.311 819.057 576.274 817.479 576.274Z" fill="#A4C0EE"/>
<path d="M247.582 735.904L241.25 734.057L272.912 581.55H281.883L247.582 735.904Z" fill="#A4C0EE"/>
<path d="M340.983 580.231H331.221L365.521 736.431L373.965 733.528L340.983 580.231Z" fill="#A4C0EE"/>
<path d="M698.239 580.495H689.005L656.551 734.32L664.994 736.167L698.239 580.495Z" fill="#A4C0EE"/>
<path d="M781.881 736.167L747.844 581.287H757.079L789.796 734.584L781.881 736.167Z" fill="#A4C0EE"/>
<path d="M431.352 734.601L426.041 710.756L444.008 707.549L446.862 734.226L431.352 734.601Z" fill="#FFB27D"/>
<path d="M482.001 736.296L480.236 707.972L497.131 705.633L499.401 734.737L482.001 736.296Z" fill="#FFB27D"/>
<path d="M479.985 750.53C477.49 748.034 478.946 733.374 479.985 726.356C484.491 725.836 494.801 724.797 500 724.797C500 734.414 511.697 735.454 520.534 739.873C527.604 743.408 528.332 747.584 527.812 749.23C524.26 749.663 515.804 750.53 510.397 750.53C503.639 750.53 502.859 748.19 498.7 746.111C495.373 744.447 495.061 748.364 495.321 750.53H479.985Z" fill="#163561"/>
<path d="M495.322 748.192L479.206 747.672L479.726 750.791H495.322V748.192Z" fill="#0A1F3D"/>
<path d="M430.012 750.696C427.266 748.48 427.153 733.749 427.44 726.66C431.865 725.663 442.006 723.533 447.175 722.979C448.199 732.542 459.94 732.331 469.197 735.785C476.603 738.547 477.772 742.623 477.43 744.315C473.944 745.123 465.627 746.885 460.252 747.46C453.532 748.179 452.508 745.936 448.151 744.311C444.666 743.011 444.772 746.938 445.261 749.064L430.012 750.696Z" fill="#163561"/>
<path d="M444.884 745.875L428.84 747.475L429.765 750.499L445.225 748.452L444.884 745.875Z" fill="#0A1F3D"/>
<path d="M477.891 623.796C467.941 597.262 415.702 602.172 390.827 607.944C388.551 613.228 384.096 626.674 384.486 638.185C384.974 652.574 450.333 638.673 456.674 649.647C461.746 658.427 472.932 695.252 477.891 712.567H500.084C501.303 692.326 492.036 656.476 492.036 653.793C492.036 651.11 486.915 637.697 477.891 623.796Z" fill="url(#paint16_linear_244_4529)"/>
<path d="M457.652 562.583C453.359 560.828 445.133 564.778 441.556 566.973C442.694 569.331 445.165 574.143 445.945 574.534C446.921 575.021 449.116 577.216 450.823 576.241C452.53 575.265 455.457 574.046 458.383 574.534C461.31 575.021 462.529 574.046 464.236 572.095C465.943 570.144 465.7 572.339 467.894 574.046C470.089 575.753 473.991 576.729 471.796 570.144C469.602 563.559 463.017 564.778 457.652 562.583Z" fill="#FFB27D"/>
<path d="M401.801 650.866C364.731 639.55 339.53 622.089 329.613 614.528C329.613 579.215 386.355 613.309 414.726 634.77C419.685 638.916 430.871 649.5 435.943 658.67C441.016 667.84 445.698 698.91 447.406 713.299H423.506L417.653 693.057C414.076 680.131 405.898 653.598 401.801 650.866Z" fill="url(#paint17_linear_244_4529)"/>
<path d="M344.005 521.856C346.736 516.198 346.769 507.467 346.444 503.809C340.835 456.496 371.563 459.179 379.367 467.715C387.171 476.25 381.806 491.127 381.806 500.15C381.806 509.174 373.514 506.491 370.1 506.491C367.905 518.685 373.514 524.05 374.002 526.977C367.564 535.561 350.021 530.554 342.054 526.977C341.566 527.627 341.274 527.513 344.005 521.856Z" fill="#FFB27D"/>
<path d="M321.81 529.904C302.885 549.024 319.127 594.938 329.614 615.505C364.732 628.186 399.851 615.505 404.973 607.213C410.094 598.921 408.631 553.804 402.046 538.439C395.461 523.075 385.219 521.856 372.781 521.856C358.148 534.342 346.849 527.058 343.028 521.856C340.914 522.425 333.712 524.831 321.81 529.904Z" fill="url(#paint18_linear_244_4529)"/>
<path d="M335.224 498.199C353.758 519.074 363.757 502.344 366.44 491.37C355.709 477.908 364.733 474.299 369.61 478.932H371.074L371.561 470.64C382.292 469.909 383.024 468.446 384.243 459.666C385.606 449.848 375.545 445.358 370.098 444.302C365.627 443.733 353.905 443.716 342.784 448.204C322.054 460.641 324.981 478.201 335.224 498.199Z" fill="#163561"/>
<path d="M390.584 569.654L381.56 547.949C377.252 535.999 374.634 515.855 398.632 530.878C408.664 554.288 411.58 561.525 411.915 562.643C415.544 564.522 423.397 564.03 435.945 562.582C440.335 564.533 442.286 565.752 443.749 565.752L447.651 575.751C436.839 579.816 412.923 588.286 403.753 589.652C397.51 584.775 392.372 574.288 390.584 569.654Z" fill="url(#paint19_linear_244_4529)"/>
<path d="M319.501 743.663L331.367 679.715L327.745 677.467L314.755 743.663H319.501Z" fill="url(#paint20_linear_244_4529)"/>
<path d="M359.844 744.788L349.853 691.706L354.474 693.455L364.84 744.788H359.844Z" fill="url(#paint21_linear_244_4529)"/>
<path d="M374.883 746.679L383.626 702.216H387.873L379.38 746.679H374.883Z" fill="url(#paint22_linear_244_4529)"/>
<path d="M420.689 747.261L409.324 690.933H405.202L416.568 747.261H420.689Z" fill="url(#paint23_linear_244_4529)"/>
<path d="M324.253 627.796C331.943 578.502 351.832 563.994 363.248 563.164C413.898 554.03 421.186 597.105 426.078 604.994C430.971 612.882 429.099 617.603 436.92 655.451C443.989 689.661 442.749 673.069 440.734 693.05C298.223 745.969 318.466 664.886 324.253 627.796Z" fill="url(#paint24_linear_244_4529)"/>
<line x1="42" y1="749" x2="982" y2="749" stroke="#355195" stroke-width="4"/>
<path d="M730.698 203.173C732.074 203.558 735.321 204.894 737.308 207.155C739.792 209.982 743.827 203.704 743.639 202.731C743.45 201.758 747.487 200.032 749.495 202.822C751.502 205.612 755.502 206.878 757.657 202.252C759.812 197.626 761.669 198.727 763.726 200.562C765.783 202.397 766.836 202.838 768.278 202.709" stroke="#FF7C0D" stroke-width="4.75524"/>
<path d="M734.653 380.33L766.834 370.064L759.634 403.066L734.653 380.33Z" fill="url(#paint25_linear_244_4529)"/>
<rect x="366.981" y="206.438" width="380.468" height="183.989" rx="10" fill="white"/>
<circle cx="433.293" cy="284.261" r="44.6762" fill="#D1E4FF"/>
<path d="M477.969 284.261C477.969 293.688 474.988 302.872 469.451 310.501C463.915 318.131 456.107 323.813 447.145 326.736C438.184 329.659 428.527 329.672 419.557 326.774C410.588 323.876 402.764 318.215 397.207 310.601C391.65 302.987 388.643 293.811 388.617 284.384C388.591 274.958 391.547 265.765 397.062 258.121C402.578 250.477 410.37 244.773 419.323 241.825C428.277 238.878 437.934 238.838 446.911 241.711L433.293 284.261H477.969Z" fill="#00FF57"/>
<path d="M477.969 284.261C477.969 293.688 474.988 302.872 469.451 310.501C463.915 318.131 456.107 323.813 447.145 326.736C438.184 329.659 428.527 329.672 419.557 326.774C410.588 323.876 402.764 318.215 397.207 310.601C391.65 302.987 388.643 293.811 388.617 284.384C388.591 274.958 391.547 265.765 397.062 258.121C402.578 250.477 410.37 244.773 419.323 241.825C428.277 238.878 437.934 238.838 446.911 241.711L433.293 284.261H477.969Z" fill="#81C2FF"/>
<path d="M477.969 284.261C477.969 292.506 475.688 300.59 471.377 307.618L433.293 284.261H477.969Z" fill="#BAAFFB"/>
<path d="M477.969 284.261C477.969 288.5 477.366 292.716 476.178 296.785L433.293 284.261H477.969Z" fill="#7F91F0"/>
<rect x="388.617" y="340.467" width="111.45" height="2.88234" fill="#DEEAFF"/>
<rect x="388.617" y="349.693" width="97.0386" height="2.88234" fill="#DEEAFF"/>
<rect x="388.617" y="357.846" width="82.627" height="2.88234" fill="#DEEAFF"/>
<g filter="url(#filter0_f_244_4529)">
<path d="M527.922 364.159C527.922 364.159 533.242 312.197 558.186 304.831C581.242 298.022 573.197 348.116 595.417 338.938C619.179 329.123 608.913 263.916 632.887 254.63C653.028 246.828 682.23 305.223 702.784 298.586C722.419 292.245 721.519 243.581 721.519 243.581" stroke="#1E6AD6" stroke-opacity="0.12"/>
<path d="M549.299 363.679C549.299 363.679 554.619 311.717 579.564 304.351C602.619 297.542 612.83 340.19 635.049 331.012C658.812 321.197 627.888 276.647 651.862 267.361C672.003 259.559 682.71 294.414 703.264 287.777C722.899 281.436 733.288 244.302 733.288 244.302" stroke="#FF7C0D" stroke-opacity="0.12"/>
</g>
<path d="M523.845 358.723C523.845 358.723 529.165 306.762 554.11 299.395C577.165 292.586 569.121 342.68 591.34 333.503C615.103 323.688 604.836 258.481 628.81 249.195C648.951 241.393 678.153 299.788 698.707 293.15C718.342 286.81 717.442 238.146 717.442 238.146" stroke="#1E6AD6"/>
<path d="M545.223 358.243C545.223 358.243 550.543 306.282 575.487 298.915C598.543 292.106 608.753 334.754 630.972 325.577C654.735 315.762 623.811 271.212 647.786 261.925C667.927 254.124 678.633 288.979 699.187 282.342C718.822 276.001 729.212 238.867 729.212 238.867" stroke="#FF7C0D"/>
<path d="M320.209 298.398L328.096 278.681L341.227 295.37L320.209 298.398Z" fill="#0176FF"/>
<path d="M497.43 186.52L495.438 174.076L507.211 178.573L497.43 186.52Z" fill="url(#paint26_linear_244_4529)"/>
<path d="M630.592 363.281C631.556 364.744 633.484 368.591 633.484 372.27C633.484 376.869 642.368 374.361 642.988 373.315C643.608 372.27 648.773 373.943 648.36 378.124C647.946 382.305 650.632 386.695 656.417 384.186C662.202 381.677 663.029 384.186 663.442 387.531C663.855 390.876 664.475 392.13 665.921 393.175" stroke="#0199FF" stroke-width="4.75524"/>
<path fill-rule="evenodd" clip-rule="evenodd" d="M252.267 216.669C248.806 219.415 248.226 224.447 250.973 227.909L259.918 239.182C262.664 242.643 267.696 243.222 271.157 240.476L282.294 231.639L288.549 234.112L287.563 227.458L298.5 218.779C301.961 216.033 302.541 211.001 299.794 207.54L290.849 196.267C288.103 192.806 283.071 192.226 279.61 194.973L252.267 216.669Z" fill="url(#paint27_linear_244_4529)"/>
<path fill-rule="evenodd" clip-rule="evenodd" d="M702.443 192.954C711.795 192.134 719.068 185.854 719.068 178.229C719.068 170.046 710.694 163.413 700.363 163.413C690.033 163.413 681.659 170.046 681.659 178.229C681.659 185.532 688.331 191.602 697.111 192.821L699.815 197.506L702.443 192.954Z" fill="url(#paint28_linear_244_4529)"/>
<path fill-rule="evenodd" clip-rule="evenodd" d="M353.549 409.148C355.34 399.933 351.309 391.21 343.979 389.108C336.114 386.852 327.429 393.072 324.58 403.002C321.732 412.932 325.799 422.811 333.664 425.067C340.685 427.081 348.358 422.341 351.951 414.238L357.2 412.929L353.549 409.148Z" fill="#FF7C0D"/>
<defs>
<filter id="filter0_f_244_4529" x="522.424" y="238.572" width="216.345" height="130.637" filterUnits="userSpaceOnUse" color-interpolation-filters="sRGB">
<feFlood flood-opacity="0" result="BackgroundImageFix"/>
<feBlend mode="normal" in="SourceGraphic" in2="BackgroundImageFix" result="shape"/>
<feGaussianBlur stdDeviation="2.5" result="effect1_foregroundBlur_244_4529"/>
</filter>
<linearGradient id="paint0_linear_244_4529" x1="907.119" y1="725.013" x2="904.959" y2="665.708" gradientUnits="userSpaceOnUse">
<stop offset="0.550331" stop-color="#7C8DB7"/>
<stop offset="1" stop-color="#A1ACBB"/>
</linearGradient>
<linearGradient id="paint1_linear_244_4529" x1="877.572" y1="725.661" x2="876.032" y2="678.092" gradientUnits="userSpaceOnUse">
<stop offset="0.550331" stop-color="#7C8DB7"/>
<stop offset="1" stop-color="#A1ACBB"/>
</linearGradient>
<linearGradient id="paint2_linear_244_4529" x1="838.145" y1="724.52" x2="836.898" y2="684.671" gradientUnits="userSpaceOnUse">
<stop offset="0.550331" stop-color="#7C8DB7"/>
<stop offset="1" stop-color="#A1ACBB"/>
</linearGradient>
<linearGradient id="paint3_linear_244_4529" x1="797.903" y1="710.695" x2="796.225" y2="660.219" gradientUnits="userSpaceOnUse">
<stop offset="0.550331" stop-color="#7C8DB7"/>
<stop offset="1" stop-color="#A1ACBB"/>
</linearGradient>
<linearGradient id="paint4_linear_244_4529" x1="847.923" y1="561.703" x2="847.923" y2="690.977" gradientUnits="userSpaceOnUse">
<stop stop-color="#F7CD7E"/>
<stop offset="1" stop-color="#EEBA59"/>
</linearGradient>
<linearGradient id="paint5_linear_244_4529" x1="837.743" y1="561.614" x2="837.743" y2="683.196" gradientUnits="userSpaceOnUse">
<stop stop-color="#FBE0B3"/>
<stop offset="1" stop-color="#FFCB6A"/>
</linearGradient>
<linearGradient id="paint6_linear_244_4529" x1="116.041" y1="710.992" x2="118.254" y2="650.251" gradientUnits="userSpaceOnUse">
<stop offset="0.550331" stop-color="#7C8DB7"/>
<stop offset="1" stop-color="#A1ACBB"/>
</linearGradient>
<linearGradient id="paint7_linear_244_4529" x1="146.304" y1="711.655" x2="147.881" y2="662.934" gradientUnits="userSpaceOnUse">
<stop offset="0.550331" stop-color="#7C8DB7"/>
<stop offset="1" stop-color="#A1ACBB"/>
</linearGradient>
<linearGradient id="paint8_linear_244_4529" x1="186.685" y1="710.485" x2="187.962" y2="669.672" gradientUnits="userSpaceOnUse">
<stop offset="0.550331" stop-color="#7C8DB7"/>
<stop offset="1" stop-color="#A1ACBB"/>
</linearGradient>
<linearGradient id="paint9_linear_244_4529" x1="227.901" y1="696.327" x2="229.62" y2="644.629" gradientUnits="userSpaceOnUse">
<stop offset="0.550331" stop-color="#7C8DB7"/>
<stop offset="1" stop-color="#A1ACBB"/>
</linearGradient>
<linearGradient id="paint10_linear_244_4529" x1="176.674" y1="543.729" x2="176.674" y2="676.132" gradientUnits="userSpaceOnUse">
<stop stop-color="#F7CD7E"/>
<stop offset="1" stop-color="#EEBA59"/>
</linearGradient>
<linearGradient id="paint11_linear_244_4529" x1="187.101" y1="543.638" x2="187.101" y2="668.163" gradientUnits="userSpaceOnUse">
<stop stop-color="#FBE0B3"/>
<stop offset="1" stop-color="#FFCB6A"/>
</linearGradient>
<linearGradient id="paint12_linear_244_4529" x1="815.316" y1="612.543" x2="815.316" y2="677.19" gradientUnits="userSpaceOnUse">
<stop stop-color="#3D8F7D"/>
<stop offset="1" stop-color="#44B09D"/>
</linearGradient>
<linearGradient id="paint13_linear_244_4529" x1="847.303" y1="517.591" x2="847.303" y2="611.869" gradientUnits="userSpaceOnUse">
<stop stop-color="#00A3FE"/>
<stop offset="1" stop-color="#0047FE"/>
</linearGradient>
<linearGradient id="paint14_linear_244_4529" x1="815.73" y1="535.203" x2="776.009" y2="577.583" gradientUnits="userSpaceOnUse">
<stop stop-color="#0045B7"/>
<stop offset="1" stop-color="#0750C9"/>
<stop offset="1" stop-color="#00348A"/>
</linearGradient>
<linearGradient id="paint15_linear_244_4529" x1="851.45" y1="513.869" x2="783.503" y2="586.304" gradientUnits="userSpaceOnUse">
<stop stop-color="#3E86FC"/>
<stop offset="1" stop-color="#0750C9"/>
<stop offset="1" stop-color="#00348A"/>
</linearGradient>
<linearGradient id="paint16_linear_244_4529" x1="442.328" y1="603.387" x2="442.328" y2="712.567" gradientUnits="userSpaceOnUse">
<stop stop-color="#3D8F7D"/>
<stop offset="1" stop-color="#44B09D"/>
</linearGradient>
<linearGradient id="paint17_linear_244_4529" x1="388.509" y1="599.253" x2="388.509" y2="713.299" gradientUnits="userSpaceOnUse">
<stop stop-color="#3D8F7D"/>
<stop offset="1" stop-color="#44B09D"/>
</linearGradient>
<linearGradient id="paint18_linear_244_4529" x1="360.572" y1="521.856" x2="360.572" y2="620.874" gradientUnits="userSpaceOnUse">
<stop stop-color="#00A3FE"/>
<stop offset="1" stop-color="#0047FE"/>
</linearGradient>
<linearGradient id="paint19_linear_244_4529" x1="400.177" y1="529.896" x2="427.1" y2="585.023" gradientUnits="userSpaceOnUse">
<stop stop-color="#4FC0FF"/>
<stop offset="1" stop-color="#0047FE"/>
</linearGradient>
<linearGradient id="paint20_linear_244_4529" x1="314.698" y1="745.446" x2="317.265" y2="674.989" gradientUnits="userSpaceOnUse">
<stop offset="0.550331" stop-color="#7C8DB7"/>
<stop offset="1" stop-color="#A1ACBB"/>
</linearGradient>
<linearGradient id="paint21_linear_244_4529" x1="349.801" y1="746.218" x2="351.631" y2="689.703" gradientUnits="userSpaceOnUse">
<stop offset="0.550331" stop-color="#7C8DB7"/>
<stop offset="1" stop-color="#A1ACBB"/>
</linearGradient>
<linearGradient id="paint22_linear_244_4529" x1="374.838" y1="747.877" x2="376.32" y2="700.534" gradientUnits="userSpaceOnUse">
<stop offset="0.550331" stop-color="#7C8DB7"/>
<stop offset="1" stop-color="#A1ACBB"/>
</linearGradient>
<linearGradient id="paint23_linear_244_4529" x1="405.148" y1="748.779" x2="407.142" y2="688.81" gradientUnits="userSpaceOnUse">
<stop offset="0.550331" stop-color="#7C8DB7"/>
<stop offset="1" stop-color="#A1ACBB"/>
</linearGradient>
<linearGradient id="paint24_linear_244_4529" x1="396.02" y1="561.939" x2="396.02" y2="706.549" gradientUnits="userSpaceOnUse">
<stop stop-color="#F7CD7E"/>
<stop offset="1" stop-color="#EEBA59"/>
</linearGradient>
<linearGradient id="paint25_linear_244_4529" x1="734.653" y1="380.33" x2="772.761" y2="388.643" gradientUnits="userSpaceOnUse">
<stop stop-color="#00A3FE"/>
<stop offset="1" stop-color="#0047FE"/>
</linearGradient>
<linearGradient id="paint26_linear_244_4529" x1="497.43" y1="186.52" x2="502.623" y2="172.926" gradientUnits="userSpaceOnUse">
<stop stop-color="#00A3FE"/>
<stop offset="1" stop-color="#0047FE"/>
</linearGradient>
<linearGradient id="paint27_linear_244_4529" x1="265.938" y1="205.821" x2="288.449" y2="234.191" gradientUnits="userSpaceOnUse">
<stop stop-color="#7FD1FF"/>
<stop offset="1" stop-color="#83A6FF"/>
</linearGradient>
<linearGradient id="paint28_linear_244_4529" x1="700.363" y1="163.413" x2="700.363" y2="197.506" gradientUnits="userSpaceOnUse">
<stop stop-color="#7FD1FF"/>
<stop offset="1" stop-color="#83A6FF"/>
</linearGradient>
</defs>
</svg>
