<svg width="74" height="74" viewBox="0 0 74 74" fill="none" xmlns="http://www.w3.org/2000/svg">
<circle cx="37" cy="37" r="37" fill="#303E49"/>
<path d="M56.7898 27.0359C56.9951 26.8311 57.1579 26.5877 57.269 26.3199C57.3801 26.052 57.4373 25.7649 57.4373 25.4749C57.4373 25.1849 57.3801 24.8977 57.269 24.6299C57.1579 24.362 56.9951 24.1187 56.7898 23.9138L50.5235 17.6475C50.3187 17.4423 50.0754 17.2794 49.8075 17.1683C49.5396 17.0572 49.2525 17 48.9625 17C48.6725 17 48.3853 17.0572 48.1175 17.1683C47.8496 17.2794 47.6063 17.4423 47.4014 17.6475L37.4595 27.5895L28.8462 18.9761C27.1191 17.249 24.307 17.249 22.5799 18.9761L18.3728 23.1831C16.6457 24.9102 16.6457 27.7223 18.3728 29.4494L26.9862 38.0628L17 48.049V57.4374H26.3884L36.3967 47.429L45.0101 56.0424C47.1136 58.1459 49.9478 57.3709 51.2764 56.0424L55.4834 51.8353C57.2105 50.1082 57.2105 47.2962 55.4834 45.5691L46.87 36.9557L56.7898 27.0359ZM21.517 26.3052L25.7019 22.0982L28.514 24.9102L25.9012 27.5452L29.0233 30.6672L31.6582 28.0323L34.3153 30.6894L30.1083 34.8964L21.517 26.3052ZM46.3829 42.7791L43.748 45.4141L46.87 48.5361L49.505 45.9012L52.3171 48.7133L48.11 52.9203L39.4966 44.3069L43.7037 40.0999L46.3829 42.7791ZM24.5505 53.0089H21.4285V49.8868L42.7073 28.608L45.5858 31.4865L45.8293 31.7301L24.5505 53.0089ZM45.8293 25.4638L48.9514 22.3417L52.0735 25.4638L48.9514 28.5859L45.8293 25.4638Z" fill="white"/>
</svg>
