<svg width="74" height="74" viewBox="0 0 74 74" fill="none" xmlns="http://www.w3.org/2000/svg">
<circle cx="37" cy="37" r="37" fill="#303E49"/>
<path d="M42.3333 30.6667H30.6666V42.3334H42.3333V30.6667Z" stroke="white" stroke-width="2.1875" stroke-linecap="round" stroke-linejoin="round"/>
<path d="M26.2916 51.0833C28.6979 51.0833 30.6666 49.1146 30.6666 46.7083V42.3333H26.2916C23.8854 42.3333 21.9166 44.3021 21.9166 46.7083C21.9166 49.1146 23.8854 51.0833 26.2916 51.0833Z" stroke="white" stroke-width="2.1875" stroke-linecap="round" stroke-linejoin="round"/>
<path d="M26.2916 30.6667H30.6666V26.2917C30.6666 23.8854 28.6979 21.9167 26.2916 21.9167C23.8854 21.9167 21.9166 23.8854 21.9166 26.2917C21.9166 28.6979 23.8854 30.6667 26.2916 30.6667Z" stroke="white" stroke-width="2.1875" stroke-linecap="round" stroke-linejoin="round"/>
<path d="M42.3334 30.6667H46.7084C49.1146 30.6667 51.0834 28.6979 51.0834 26.2917C51.0834 23.8854 49.1146 21.9167 46.7084 21.9167C44.3021 21.9167 42.3334 23.8854 42.3334 26.2917V30.6667Z" stroke="white" stroke-width="2.1875" stroke-linecap="round" stroke-linejoin="round"/>
<path d="M46.7084 51.0833C49.1146 51.0833 51.0834 49.1146 51.0834 46.7083C51.0834 44.3021 49.1146 42.3333 46.7084 42.3333H42.3334V46.7083C42.3334 49.1146 44.3021 51.0833 46.7084 51.0833Z" stroke="white" stroke-width="2.1875" stroke-linecap="round" stroke-linejoin="round"/>
</svg>
