<svg width="74" height="74" viewBox="0 0 74 74" fill="none" xmlns="http://www.w3.org/2000/svg">
<circle cx="37" cy="37" r="37" fill="#303E49"/>
<path d="M21 43.5603C21 42.962 21.2377 42.3881 21.6608 41.965C22.0839 41.542 22.6577 41.3043 23.256 41.3043H27.7681C28.3664 41.3043 28.9403 41.542 29.3633 41.965C29.7864 42.3881 30.0241 42.962 30.0241 43.5603V50.3284C30.0241 50.9267 29.7864 51.5005 29.3633 51.9236C28.9403 52.3467 28.3664 52.5844 27.7681 52.5844H23.256C22.6577 52.5844 22.0839 52.3467 21.6608 51.9236C21.2377 51.5005 21 50.9267 21 50.3284V43.5603ZM32.2801 34.5362C32.2801 33.9378 32.5178 33.364 32.9409 32.9409C33.364 32.5178 33.9378 32.2801 34.5362 32.2801H39.0482C39.6466 32.2801 40.2204 32.5178 40.6435 32.9409C41.0666 33.364 41.3043 33.9378 41.3043 34.5362V50.3284C41.3043 50.9267 41.0666 51.5005 40.6435 51.9236C40.2204 52.3467 39.6466 52.5844 39.0482 52.5844H34.5362C33.9378 52.5844 33.364 52.3467 32.9409 51.9236C32.5178 51.5005 32.2801 50.9267 32.2801 50.3284V34.5362ZM43.5603 23.256C43.5603 22.6577 43.798 22.0839 44.2211 21.6608C44.6442 21.2377 45.218 21 45.8163 21H50.3284C50.9267 21 51.5005 21.2377 51.9236 21.6608C52.3467 22.0839 52.5844 22.6577 52.5844 23.256V50.3284C52.5844 50.9267 52.3467 51.5005 51.9236 51.9236C51.5005 52.3467 50.9267 52.5844 50.3284 52.5844H45.8163C45.218 52.5844 44.6442 52.3467 44.2211 51.9236C43.798 51.5005 43.5603 50.9267 43.5603 50.3284V23.256Z" fill="white"/>
</svg>
