<svg width="74" height="75" viewBox="0 0 74 75" fill="none" xmlns="http://www.w3.org/2000/svg">
<ellipse cx="37" cy="37.454" rx="37" ry="37.454" fill="#303E49"/>
<path fill-rule="evenodd" clip-rule="evenodd" d="M20.75 21.1312C20.75 20.6278 20.5525 20.1451 20.2008 19.7891C19.8492 19.4332 19.3723 19.2332 18.875 19.2332C18.3777 19.2332 17.9008 19.4332 17.5492 19.7891C17.1975 20.1451 17 20.6278 17 21.1312V52.7647C17 53.8124 17.84 54.6627 18.875 54.6627H55.125C55.6223 54.6627 56.0992 54.4627 56.4508 54.1068C56.8025 53.7508 57 53.268 57 52.7647C57 52.2613 56.8025 51.7785 56.4508 51.4226C56.0992 51.0666 55.6223 50.8667 55.125 50.8667H20.75V21.1312ZM56.45 27.5338C56.7812 27.174 56.9615 26.6981 56.9529 26.2064C56.9444 25.7147 56.7476 25.2456 56.4041 24.8978C56.0605 24.5501 55.5971 24.3509 55.1113 24.3422C54.6256 24.3335 54.1554 24.516 53.8 24.8513L42 36.7961L35.825 30.5453C35.4734 30.1899 34.9969 29.9903 34.5 29.9903C34.0031 29.9903 33.5266 30.1899 33.175 30.5453L25.05 38.77C24.7188 39.1298 24.5385 39.6057 24.5471 40.0974C24.5556 40.5891 24.7524 41.0583 25.0959 41.406C25.4395 41.7538 25.9029 41.953 26.3887 41.9617C26.8744 41.9703 27.3446 41.7878 27.7 41.4525L34.5 34.5691L40.675 40.8199C41.0266 41.1753 41.5031 41.375 42 41.375C42.4969 41.375 42.9734 41.1753 43.325 40.8199L56.45 27.5338Z" fill="white"/>
</svg>
